<svg xmlns="http://www.w3.org/2000/svg" width="20" height="20" fill="none"><path stroke="#969696" stroke-linecap="round" stroke-linejoin="round" stroke-miterlimit="10" stroke-width="1.5" d="M5.783 17.192A8.336 8.336 0 0 0 18.333 10c0-4.6-3.733-8.333-8.333-8.333a8.336 8.336 0 0 0-7.217 12.5l-1.116 4.166 4.116-1.141Z"/><path stroke="#969696" stroke-miterlimit="10" stroke-width="1.5" d="M14.167 12.642c0 .15-.034.308-.109.458a1.899 1.899 0 0 1-.967.917c-.25.108-.524.158-.816.158-.425 0-.883-.1-1.358-.308a7.636 7.636 0 0 1-1.434-.825 12.04 12.04 0 0 1-1.366-1.167 11.923 11.923 0 0 1-1.167-1.367 7.332 7.332 0 0 1-.817-1.425c-.2-.475-.3-.933-.3-1.366 0-.284.05-.559.15-.809.1-.258.259-.491.484-.7.266-.266.558-.391.866-.391.117 0 .234.025.342.075a.69.69 0 0 1 .283.233l.967 1.367c.075.108.133.2.167.291a.608.608 0 0 1 .058.259c0 .1-.033.2-.092.3-.058.1-.133.2-.233.3l-.317.333c-.05.05-.066.1-.066.167 0 .033.008.066.016.1.017.033.025.058.034.083.075.142.208.317.391.533a11.25 11.25 0 0 0 1.275 1.275c.217.184.4.309.542.384.025.008.05.025.075.033a.23.23 0 0 0 .108.017.227.227 0 0 0 .175-.075l.317-.317c.108-.108.208-.183.3-.233a.574.574 0 0 1 .3-.092c.083 0 .167.017.258.058.092.042.192.092.292.167l1.383.983a.704.704 0 0 1 .234.267c0 .1.025.2.025.317Z"/></svg>